{"title":"After.Life.2009.SWESUB.DVDRip.XviD.AC3.(5.1)-Zen_Bud","uid":5728620,"size":1471690106,"categoryP":"video","categoryS":"movies","magnet":"?xt=urn:btih:ceb685d5236f50fd39e75fece28bb86c3119f620&amp;dn=After.Life.2009.SWESUB.DVDRip.XviD.AC3.%285.1%29-Zen_Bud&amp;tr=udp%3A%2F%2Ftracker.openbittorrent.com%3A80&amp;tr=udp%3A%2F%2Fopen.demonii.com%3A1337&amp;tr=udp%3A%2F%2Ftracker.coppersurfer.tk%3A6969&amp;tr=udp%3A%2F%2Fexodus.desync.com%3A6969","seeders":0,"leechers":1,"uploader":null,"files":1,"time":1280563584,"description":"General\nComplete name                    : After.Life.2009.avi\nFormat                           : AVI\nFile size                        : 1.37 GiB\nDuration                         : 1h 42mn\nOverall bit rate                 : 1 908 Kbps\n\nVideo\n\nFormat                           : MPEG-4 Visual\nCodec ID/Hint                    : XviD\nDuration                         : 1h 42mn\nBit rate                         : 1 449 Kbps\nWidth                            : 720 pixels\nHeight                           : 360 pixels\nDisplay aspect ratio             : 2.35:1\nStream size                      : 1.04 GiB (76%)\nWriting library                  : XviD 1.1.2 (UTC 2006-11-01)\n\nAudio\n\nFormat                           : AC-3\nDuration                         : 1h 42mn\nBit rate                         : 448 Kbps\nChannel(s)                       : 6 channels\nChannel positions                : Front: L C R, Side: L R, LFE\nSampling rate                    : 48.0 KHz\nStream size                      : 330 MiB (23%)","torrent":{"xt":"urn:btih:ceb685d5236f50fd39e75fece28bb86c3119f620","amp;dn":"After.Life.2009.SWESUB.DVDRip.XviD.AC3.%285.1%29-Zen_Bud","amp;tr":["udp%3A%2F%2Ftracker.openbittorrent.com%3A80","udp%3A%2F%2Fopen.demonii.com%3A1337","udp%3A%2F%2Ftracker.coppersurfer.tk%3A6969","udp%3A%2F%2Fexodus.desync.com%3A6969"],"infoHash":"ceb685d5236f50fd39e75fece28bb86c3119f620","infoHashBuffer":{"type":"Buffer","data":[206,182,133,213,35,111,80,253,57,231,95,236,226,139,184,108,49,25,246,32]},"announce":[],"urlList":[]}}